{
    "asset" : {
        "generator" : "Khronos glTF Blender I/O v1.7.33",
        "version" : "2.0"
    },
    "scene" : 0,
    "scenes" : [
        {
            "name" : "Scene",
            "nodes" : [
                0,
                1
            ]
        }
    ],
    "nodes" : [
        {
            "mesh" : 0,
            "name" : "Cube",
            "scale" : [
                4.767001628875732,
                4.767001628875732,
                4.767001628875732
            ]
        },
        {
            "mesh" : 1,
            "name" : "Cube.001",
            "scale" : [
                2.853541374206543,
                1,
                1
            ],
            "translation" : [
                0,
                -1.1568620204925537,
                6.69352912902832
            ]
        }
    ],
    "animations" : [
        {
            "channels" : [
                {
                    "sampler" : 0,
                    "target" : {
                        "node" : 1,
                        "path" : "translation"
                    }
                }
            ],
            "name" : "Cube.001Action",
            "samplers" : [
                {
                    "input" : 32,
                    "interpolation" : "LINEAR",
                    "output" : 33
                }
            ]
        }
    ],
    "materials" : [
        {
            "doubleSided" : true,
            "emissiveFactor" : [
                0,
                0.7835378646850586,
                0.7991029620170593
            ],
            "name" : "glow",
            "pbrMetallicRoughness" : {
                "baseColorFactor" : [
                    0,
                    0.7855513691902161,
                    0.8000000715255737,
                    1
                ],
                "metallicFactor" : 0,
                "roughnessFactor" : 0.5
            }
        },
        {
            "doubleSided" : true,
            "name" : "Material.003",
            "pbrMetallicRoughness" : {
                "baseColorFactor" : [
                    0.5596234798431396,
                    0.6677984595298767,
                    0.31707504391670227,
                    1
                ],
                "metallicFactor" : 0,
                "roughnessFactor" : 0.5
            }
        },
        {
            "doubleSided" : true,
            "name" : "roof",
            "pbrMetallicRoughness" : {
                "baseColorFactor" : [
                    0.10752038657665253,
                    0.02018170803785324,
                    0.029604097828269005,
                    1
                ],
                "metallicFactor" : 0
            }
        },
        {
            "doubleSided" : true,
            "name" : "grass",
            "pbrMetallicRoughness" : {
                "baseColorFactor" : [
                    0.06457702070474625,
                    0.8000000715255737,
                    0.07302621006965637,
                    1
                ],
                "metallicFactor" : 0
            }
        },
        {
            "doubleSided" : true,
            "name" : "glass",
            "pbrMetallicRoughness" : {
                "baseColorFactor" : [
                    0.800000011920929,
                    0.800000011920929,
                    0.800000011920929,
                    1
                ],
                "metallicFactor" : 0.586363673210144,
                "roughnessFactor" : 0
            }
        },
        {
            "doubleSided" : true,
            "name" : "door",
            "pbrMetallicRoughness" : {
                "baseColorFactor" : [
                    0.04724758490920067,
                    0.004561837762594223,
                    0.05411563813686371,
                    1
                ],
                "metallicFactor" : 0,
                "roughnessFactor" : 0.5
            }
        },
        {
            "doubleSided" : true,
            "emissiveFactor" : [
                1,
                1,
                1
            ],
            "emissiveTexture" : {
                "index" : 0
            },
            "name" : "texture",
            "pbrMetallicRoughness" : {
                "baseColorTexture" : {
                    "index" : 1
                },
                "metallicFactor" : 0,
                "roughnessFactor" : 0.5
            }
        },
        {
            "doubleSided" : true,
            "name" : "Material.004",
            "pbrMetallicRoughness" : {
                "baseColorFactor" : [
                    0.20072509348392487,
                    0.20072509348392487,
                    0.20072509348392487,
                    1
                ],
                "metallicFactor" : 0
            }
        }
    ],
    "meshes" : [
        {
            "name" : "Cube.002",
            "primitives" : [
                {
                    "attributes" : {
                        "POSITION" : 0,
                        "NORMAL" : 1,
                        "TEXCOORD_0" : 2
                    },
                    "indices" : 3,
                    "material" : 0
                },
                {
                    "attributes" : {
                        "POSITION" : 4,
                        "NORMAL" : 5,
                        "TEXCOORD_0" : 6
                    },
                    "indices" : 7,
                    "material" : 1
                },
                {
                    "attributes" : {
                        "POSITION" : 8,
                        "NORMAL" : 9,
                        "TEXCOORD_0" : 10
                    },
                    "indices" : 11,
                    "material" : 2
                },
                {
                    "attributes" : {
                        "POSITION" : 12,
                        "NORMAL" : 13,
                        "TEXCOORD_0" : 14
                    },
                    "indices" : 15,
                    "material" : 3
                },
                {
                    "attributes" : {
                        "POSITION" : 16,
                        "NORMAL" : 17,
                        "TEXCOORD_0" : 18
                    },
                    "indices" : 19,
                    "material" : 4
                },
                {
                    "attributes" : {
                        "POSITION" : 20,
                        "NORMAL" : 21,
                        "TEXCOORD_0" : 22
                    },
                    "indices" : 23,
                    "material" : 5
                },
                {
                    "attributes" : {
                        "POSITION" : 24,
                        "NORMAL" : 25,
                        "TEXCOORD_0" : 26
                    },
                    "indices" : 27,
                    "material" : 6
                }
            ]
        },
        {
            "name" : "Cube.004",
            "primitives" : [
                {
                    "attributes" : {
                        "POSITION" : 28,
                        "NORMAL" : 29,
                        "TEXCOORD_0" : 30
                    },
                    "indices" : 31,
                    "material" : 7
                }
            ]
        }
    ],
    "textures" : [
        {
            "sampler" : 0,
            "source" : 0
        },
        {
            "sampler" : 0,
            "source" : 0
        }
    ],
    "images" : [
        {
            "bufferView" : 28,
            "mimeType" : "image/png",
            "name" : "zaza"
        }
    ],
    "accessors" : [
        {
            "bufferView" : 0,
            "componentType" : 5126,
            "count" : 508,
            "max" : [
                1.3596009016036987,
                1.8383467197418213,
                2.0930051803588867
            ],
            "min" : [
                -1.3596009016036987,
                -0.005880117416381836,
                -1
            ],
            "type" : "VEC3"
        },
        {
            "bufferView" : 1,
            "componentType" : 5126,
            "count" : 508,
            "type" : "VEC3"
        },
        {
            "bufferView" : 2,
            "componentType" : 5126,
            "count" : 508,
            "type" : "VEC2"
        },
        {
            "bufferView" : 3,
            "componentType" : 5123,
            "count" : 984,
            "type" : "SCALAR"
        },
        {
            "bufferView" : 4,
            "componentType" : 5126,
            "count" : 327,
            "max" : [
                1.3596009016036987,
                1.8383466005325317,
                1.053788423538208
            ],
            "min" : [
                -1.3596009016036987,
                0.0003294944763183594,
                -1
            ],
            "type" : "VEC3"
        },
        {
            "bufferView" : 5,
            "componentType" : 5126,
            "count" : 327,
            "type" : "VEC3"
        },
        {
            "bufferView" : 6,
            "componentType" : 5126,
            "count" : 327,
            "type" : "VEC2"
        },
        {
            "bufferView" : 7,
            "componentType" : 5123,
            "count" : 600,
            "type" : "SCALAR"
        },
        {
            "bufferView" : 8,
            "componentType" : 5126,
            "count" : 220,
            "max" : [
                1.408092737197876,
                3.156149387359619,
                1.2461352348327637
            ],
            "min" : [
                -1.408092737197876,
                0.8391810059547424,
                -1
            ],
            "type" : "VEC3"
        },
        {
            "bufferView" : 9,
            "componentType" : 5126,
            "count" : 220,
            "type" : "VEC3"
        },
        {
            "bufferView" : 10,
            "componentType" : 5126,
            "count" : 220,
            "type" : "VEC2"
        },
        {
            "bufferView" : 11,
            "componentType" : 5123,
            "count" : 348,
            "type" : "SCALAR"
        },
        {
            "bufferView" : 12,
            "componentType" : 5126,
            "count" : 4,
            "max" : [
                4.314336776733398,
                0,
                4.314336776733398
            ],
            "min" : [
                -4.314336776733398,
                0,
                -4.314336776733398
            ],
            "type" : "VEC3"
        },
        {
            "bufferView" : 13,
            "componentType" : 5126,
            "count" : 4,
            "type" : "VEC3"
        },
        {
            "bufferView" : 14,
            "componentType" : 5126,
            "count" : 4,
            "type" : "VEC2"
        },
        {
            "bufferView" : 15,
            "componentType" : 5123,
            "count" : 6,
            "type" : "SCALAR"
        },
        {
            "bufferView" : 16,
            "componentType" : 5126,
            "count" : 12,
            "max" : [
                0.9127024412155151,
                1.5573999881744385,
                0.9728068113327026
            ],
            "min" : [
                -0.8943831324577332,
                0.3642587661743164,
                -0.8350920081138611
            ],
            "type" : "VEC3"
        },
        {
            "bufferView" : 17,
            "componentType" : 5126,
            "count" : 12,
            "type" : "VEC3"
        },
        {
            "bufferView" : 18,
            "componentType" : 5126,
            "count" : 12,
            "type" : "VEC2"
        },
        {
            "bufferView" : 19,
            "componentType" : 5123,
            "count" : 18,
            "type" : "SCALAR"
        },
        {
            "bufferView" : 20,
            "componentType" : 5126,
            "count" : 8,
            "max" : [
                0.8788623213768005,
                1.604337215423584,
                0.9385570287704468
            ],
            "min" : [
                -0.29291999340057373,
                0.020869990810751915,
                0.5482810139656067
            ],
            "type" : "VEC3"
        },
        {
            "bufferView" : 21,
            "componentType" : 5126,
            "count" : 8,
            "type" : "VEC3"
        },
        {
            "bufferView" : 22,
            "componentType" : 5126,
            "count" : 8,
            "type" : "VEC2"
        },
        {
            "bufferView" : 23,
            "componentType" : 5123,
            "count" : 12,
            "type" : "SCALAR"
        },
        {
            "bufferView" : 24,
            "componentType" : 5126,
            "count" : 8,
            "max" : [
                0.8763704299926758,
                1.6435613632202148,
                0.9539568424224854
            ],
            "min" : [
                -0.8763704299926758,
                1.1077293157577515,
                0.9539568424224854
            ],
            "type" : "VEC3"
        },
        {
            "bufferView" : 25,
            "componentType" : 5126,
            "count" : 8,
            "type" : "VEC3"
        },
        {
            "bufferView" : 26,
            "componentType" : 5126,
            "count" : 8,
            "type" : "VEC2"
        },
        {
            "bufferView" : 27,
            "componentType" : 5123,
            "count" : 18,
            "type" : "SCALAR"
        },
        {
            "bufferView" : 29,
            "componentType" : 5126,
            "count" : 48,
            "max" : [
                1,
                1,
                1
            ],
            "min" : [
                -1,
                -1,
                -1
            ],
            "type" : "VEC3"
        },
        {
            "bufferView" : 30,
            "componentType" : 5126,
            "count" : 48,
            "type" : "VEC3"
        },
        {
            "bufferView" : 31,
            "componentType" : 5126,
            "count" : 48,
            "type" : "VEC2"
        },
        {
            "bufferView" : 32,
            "componentType" : 5123,
            "count" : 84,
            "type" : "SCALAR"
        },
        {
            "bufferView" : 33,
            "componentType" : 5126,
            "count" : 251,
            "max" : [
                10.416666666666666
            ],
            "min" : [
                0
            ],
            "type" : "SCALAR"
        },
        {
            "bufferView" : 34,
            "componentType" : 5126,
            "count" : 251,
            "type" : "VEC3"
        }
    ],
    "bufferViews" : [
        {
            "buffer" : 0,
            "byteLength" : 6096,
            "byteOffset" : 0
        },
        {
            "buffer" : 0,
            "byteLength" : 6096,
            "byteOffset" : 6096
        },
        {
            "buffer" : 0,
            "byteLength" : 4064,
            "byteOffset" : 12192
        },
        {
            "buffer" : 0,
            "byteLength" : 1968,
            "byteOffset" : 16256
        },
        {
            "buffer" : 0,
            "byteLength" : 3924,
            "byteOffset" : 18224
        },
        {
            "buffer" : 0,
            "byteLength" : 3924,
            "byteOffset" : 22148
        },
        {
            "buffer" : 0,
            "byteLength" : 2616,
            "byteOffset" : 26072
        },
        {
            "buffer" : 0,
            "byteLength" : 1200,
            "byteOffset" : 28688
        },
        {
            "buffer" : 0,
            "byteLength" : 2640,
            "byteOffset" : 29888
        },
        {
            "buffer" : 0,
            "byteLength" : 2640,
            "byteOffset" : 32528
        },
        {
            "buffer" : 0,
            "byteLength" : 1760,
            "byteOffset" : 35168
        },
        {
            "buffer" : 0,
            "byteLength" : 696,
            "byteOffset" : 36928
        },
        {
            "buffer" : 0,
            "byteLength" : 48,
            "byteOffset" : 37624
        },
        {
            "buffer" : 0,
            "byteLength" : 48,
            "byteOffset" : 37672
        },
        {
            "buffer" : 0,
            "byteLength" : 32,
            "byteOffset" : 37720
        },
        {
            "buffer" : 0,
            "byteLength" : 12,
            "byteOffset" : 37752
        },
        {
            "buffer" : 0,
            "byteLength" : 144,
            "byteOffset" : 37764
        },
        {
            "buffer" : 0,
            "byteLength" : 144,
            "byteOffset" : 37908
        },
        {
            "buffer" : 0,
            "byteLength" : 96,
            "byteOffset" : 38052
        },
        {
            "buffer" : 0,
            "byteLength" : 36,
            "byteOffset" : 38148
        },
        {
            "buffer" : 0,
            "byteLength" : 96,
            "byteOffset" : 38184
        },
        {
            "buffer" : 0,
            "byteLength" : 96,
            "byteOffset" : 38280
        },
        {
            "buffer" : 0,
            "byteLength" : 64,
            "byteOffset" : 38376
        },
        {
            "buffer" : 0,
            "byteLength" : 24,
            "byteOffset" : 38440
        },
        {
            "buffer" : 0,
            "byteLength" : 96,
            "byteOffset" : 38464
        },
        {
            "buffer" : 0,
            "byteLength" : 96,
            "byteOffset" : 38560
        },
        {
            "buffer" : 0,
            "byteLength" : 64,
            "byteOffset" : 38656
        },
        {
            "buffer" : 0,
            "byteLength" : 36,
            "byteOffset" : 38720
        },
        {
            "buffer" : 0,
            "byteLength" : 101446,
            "byteOffset" : 38756
        },
        {
            "buffer" : 0,
            "byteLength" : 576,
            "byteOffset" : 140204
        },
        {
            "buffer" : 0,
            "byteLength" : 576,
            "byteOffset" : 140780
        },
        {
            "buffer" : 0,
            "byteLength" : 384,
            "byteOffset" : 141356
        },
        {
            "buffer" : 0,
            "byteLength" : 168,
            "byteOffset" : 141740
        },
        {
            "buffer" : 0,
            "byteLength" : 1004,
            "byteOffset" : 141908
        },
        {
            "buffer" : 0,
            "byteLength" : 3012,
            "byteOffset" : 142912
        }
    ],
    "samplers" : [
        {
            "magFilter" : 9729,
            "minFilter" : 9987
        }
    ],
    "buffers" : [
        {
            "byteLength" : 145924,
            "uri" : "data:application/octet-stream;base64,"
        }
    ]
}
